<mxfile host="app.diagrams.net" modified="2023-09-06T21:57:19.462Z" agent="Mozilla/5.0 (X11; Linux x86_64) AppleWebKit/537.36 (KHTML, like Gecko) Chrome/115.0.0.0 Safari/537.36" etag="BVmQS76t6ue5rzI4LBcP" version="21.7.2" type="device">
  <diagram name="Page-1" id="yFsD_rq4y9ADLa1zhZdH">
    <mxGraphModel dx="1979" dy="1335" grid="1" gridSize="10" guides="1" tooltips="1" connect="1" arrows="1" fold="1" page="1" pageScale="1" pageWidth="1100" pageHeight="850" math="0" shadow="0">
      <root>
        <mxCell id="0" />
        <mxCell id="1" parent="0" />
        <mxCell id="5FXO2D51VpSBJTWo2e1x-1" value="" style="rounded=0;whiteSpace=wrap;html=1;" vertex="1" parent="1">
          <mxGeometry x="-110" y="70" width="830" height="500" as="geometry" />
        </mxCell>
        <mxCell id="5FXO2D51VpSBJTWo2e1x-29" style="edgeStyle=orthogonalEdgeStyle;rounded=0;orthogonalLoop=1;jettySize=auto;html=1;entryX=0.5;entryY=0;entryDx=0;entryDy=0;entryPerimeter=0;" edge="1" parent="1" source="5FXO2D51VpSBJTWo2e1x-2" target="5FXO2D51VpSBJTWo2e1x-22">
          <mxGeometry relative="1" as="geometry">
            <Array as="points">
              <mxPoint x="500" y="135" />
              <mxPoint x="500" y="40" />
              <mxPoint x="230" y="40" />
            </Array>
          </mxGeometry>
        </mxCell>
        <mxCell id="5FXO2D51VpSBJTWo2e1x-2" value="0xAF11" style="rounded=0;whiteSpace=wrap;html=1;fontFamily=Ubuntu;fontSource=https%3A%2F%2Ffonts.googleapis.com%2Fcss%3Ffamily%3DUbuntu;fontSize=14;" vertex="1" parent="1">
          <mxGeometry x="520" y="120" width="50" height="30" as="geometry" />
        </mxCell>
        <mxCell id="5FXO2D51VpSBJTWo2e1x-30" style="edgeStyle=orthogonalEdgeStyle;rounded=0;orthogonalLoop=1;jettySize=auto;html=1;" edge="1" parent="1" source="5FXO2D51VpSBJTWo2e1x-3" target="5FXO2D51VpSBJTWo2e1x-28">
          <mxGeometry relative="1" as="geometry">
            <Array as="points">
              <mxPoint x="650" y="135" />
              <mxPoint x="650" y="80" />
              <mxPoint x="380" y="80" />
            </Array>
          </mxGeometry>
        </mxCell>
        <mxCell id="5FXO2D51VpSBJTWo2e1x-3" value="0xAF12" style="rounded=0;whiteSpace=wrap;html=1;fontFamily=Ubuntu;fontSource=https%3A%2F%2Ffonts.googleapis.com%2Fcss%3Ffamily%3DUbuntu;fontSize=14;" vertex="1" parent="1">
          <mxGeometry x="570" y="120" width="50" height="30" as="geometry" />
        </mxCell>
        <mxCell id="5FXO2D51VpSBJTWo2e1x-8" value="0xAF10" style="text;html=1;strokeColor=#6c8ebf;fillColor=#dae8fc;align=center;verticalAlign=middle;whiteSpace=wrap;rounded=0;fontFamily=Ubuntu;fontSource=https%3A%2F%2Ffonts.googleapis.com%2Fcss%3Ffamily%3DUbuntu;fontSize=14;" vertex="1" parent="1">
          <mxGeometry x="520" y="90" width="60" height="30" as="geometry" />
        </mxCell>
        <mxCell id="5FXO2D51VpSBJTWo2e1x-9" value="..." style="rounded=0;whiteSpace=wrap;html=1;fontFamily=Ubuntu;fontSource=https%3A%2F%2Ffonts.googleapis.com%2Fcss%3Ffamily%3DUbuntu;fontSize=14;" vertex="1" parent="1">
          <mxGeometry x="520" y="180" width="170" height="30" as="geometry" />
        </mxCell>
        <mxCell id="5FXO2D51VpSBJTWo2e1x-10" value="0" style="rounded=0;whiteSpace=wrap;html=1;fontFamily=Ubuntu;fontSource=https%3A%2F%2Ffonts.googleapis.com%2Fcss%3Ffamily%3DUbuntu;fontSize=14;" vertex="1" parent="1">
          <mxGeometry x="520" y="150" width="50" height="30" as="geometry" />
        </mxCell>
        <mxCell id="5FXO2D51VpSBJTWo2e1x-11" value="1" style="rounded=0;whiteSpace=wrap;html=1;fontFamily=Ubuntu;fontSource=https%3A%2F%2Ffonts.googleapis.com%2Fcss%3Ffamily%3DUbuntu;fontSize=14;" vertex="1" parent="1">
          <mxGeometry x="570" y="150" width="50" height="30" as="geometry" />
        </mxCell>
        <mxCell id="5FXO2D51VpSBJTWo2e1x-12" value="Table&#39;s Observable ArrayList&lt;br&gt;" style="text;html=1;align=center;verticalAlign=middle;whiteSpace=wrap;rounded=0;fontFamily=Ubuntu;fontSource=https%3A%2F%2Ffonts.googleapis.com%2Fcss%3Ffamily%3DUbuntu;fontSize=14;" vertex="1" parent="1">
          <mxGeometry x="520" y="220" width="185" height="30" as="geometry" />
        </mxCell>
        <mxCell id="5FXO2D51VpSBJTWo2e1x-17" value="code = 1234" style="rounded=0;whiteSpace=wrap;html=1;" vertex="1" parent="1">
          <mxGeometry x="200" y="90" width="120" height="30" as="geometry" />
        </mxCell>
        <mxCell id="5FXO2D51VpSBJTWo2e1x-18" value="description = Atlas Blue Marker" style="rounded=0;whiteSpace=wrap;html=1;" vertex="1" parent="1">
          <mxGeometry x="200" y="120" width="120" height="30" as="geometry" />
        </mxCell>
        <mxCell id="5FXO2D51VpSBJTWo2e1x-19" value="qty = 5" style="rounded=0;whiteSpace=wrap;html=1;" vertex="1" parent="1">
          <mxGeometry x="200" y="150" width="120" height="30" as="geometry" />
        </mxCell>
        <mxCell id="5FXO2D51VpSBJTWo2e1x-20" value="price = 100" style="rounded=0;whiteSpace=wrap;html=1;" vertex="1" parent="1">
          <mxGeometry x="200" y="180" width="120" height="30" as="geometry" />
        </mxCell>
        <mxCell id="5FXO2D51VpSBJTWo2e1x-21" value="total = 500" style="rounded=0;whiteSpace=wrap;html=1;" vertex="1" parent="1">
          <mxGeometry x="200" y="210" width="120" height="30" as="geometry" />
        </mxCell>
        <mxCell id="5FXO2D51VpSBJTWo2e1x-63" style="rounded=0;orthogonalLoop=1;jettySize=auto;html=1;dashed=1;" edge="1" parent="1" source="5FXO2D51VpSBJTWo2e1x-22" target="5FXO2D51VpSBJTWo2e1x-62">
          <mxGeometry relative="1" as="geometry" />
        </mxCell>
        <mxCell id="5FXO2D51VpSBJTWo2e1x-22" value="0xAF11" style="text;html=1;strokeColor=#6c8ebf;fillColor=#dae8fc;align=center;verticalAlign=middle;whiteSpace=wrap;rounded=0;fontFamily=Ubuntu;fontSource=https%3A%2F%2Ffonts.googleapis.com%2Fcss%3Ffamily%3DUbuntu;fontSize=14;" vertex="1" parent="1">
          <mxGeometry x="200" y="60" width="60" height="30" as="geometry" />
        </mxCell>
        <mxCell id="5FXO2D51VpSBJTWo2e1x-23" value="code = 45678" style="rounded=0;whiteSpace=wrap;html=1;" vertex="1" parent="1">
          <mxGeometry x="350" y="120" width="120" height="30" as="geometry" />
        </mxCell>
        <mxCell id="5FXO2D51VpSBJTWo2e1x-24" value="description = Atlas Black Marker" style="rounded=0;whiteSpace=wrap;html=1;" vertex="1" parent="1">
          <mxGeometry x="350" y="150" width="120" height="30" as="geometry" />
        </mxCell>
        <mxCell id="5FXO2D51VpSBJTWo2e1x-25" value="qty = 2" style="rounded=0;whiteSpace=wrap;html=1;" vertex="1" parent="1">
          <mxGeometry x="350" y="180" width="120" height="30" as="geometry" />
        </mxCell>
        <mxCell id="5FXO2D51VpSBJTWo2e1x-26" value="price = 200" style="rounded=0;whiteSpace=wrap;html=1;" vertex="1" parent="1">
          <mxGeometry x="350" y="210" width="120" height="30" as="geometry" />
        </mxCell>
        <mxCell id="5FXO2D51VpSBJTWo2e1x-27" value="total = 400" style="rounded=0;whiteSpace=wrap;html=1;" vertex="1" parent="1">
          <mxGeometry x="350" y="240" width="120" height="30" as="geometry" />
        </mxCell>
        <mxCell id="5FXO2D51VpSBJTWo2e1x-64" style="rounded=0;orthogonalLoop=1;jettySize=auto;html=1;dashed=1;" edge="1" parent="1" source="5FXO2D51VpSBJTWo2e1x-28" target="5FXO2D51VpSBJTWo2e1x-62">
          <mxGeometry relative="1" as="geometry" />
        </mxCell>
        <mxCell id="5FXO2D51VpSBJTWo2e1x-28" value="0xAF12" style="text;html=1;strokeColor=#6c8ebf;fillColor=#dae8fc;align=center;verticalAlign=middle;whiteSpace=wrap;rounded=0;fontFamily=Ubuntu;fontSource=https%3A%2F%2Ffonts.googleapis.com%2Fcss%3Ffamily%3DUbuntu;fontSize=14;" vertex="1" parent="1">
          <mxGeometry x="350" y="90" width="60" height="30" as="geometry" />
        </mxCell>
        <mxCell id="5FXO2D51VpSBJTWo2e1x-38" value="0xAF14" style="rounded=0;whiteSpace=wrap;html=1;fontFamily=Ubuntu;fontSource=https%3A%2F%2Ffonts.googleapis.com%2Fcss%3Ffamily%3DUbuntu;fontSize=14;" vertex="1" parent="1">
          <mxGeometry x="-70" y="360" width="50" height="30" as="geometry" />
        </mxCell>
        <mxCell id="5FXO2D51VpSBJTWo2e1x-60" style="edgeStyle=orthogonalEdgeStyle;rounded=0;orthogonalLoop=1;jettySize=auto;html=1;entryX=0.25;entryY=0;entryDx=0;entryDy=0;" edge="1" parent="1" source="5FXO2D51VpSBJTWo2e1x-39" target="5FXO2D51VpSBJTWo2e1x-57">
          <mxGeometry relative="1" as="geometry">
            <Array as="points">
              <mxPoint x="5" y="290" />
              <mxPoint x="395" y="290" />
            </Array>
          </mxGeometry>
        </mxCell>
        <mxCell id="5FXO2D51VpSBJTWo2e1x-39" value="0xAF15" style="rounded=0;whiteSpace=wrap;html=1;fontFamily=Ubuntu;fontSource=https%3A%2F%2Ffonts.googleapis.com%2Fcss%3Ffamily%3DUbuntu;fontSize=14;" vertex="1" parent="1">
          <mxGeometry x="-20" y="360" width="50" height="30" as="geometry" />
        </mxCell>
        <mxCell id="5FXO2D51VpSBJTWo2e1x-40" value="0xAF13" style="text;html=1;strokeColor=#6c8ebf;fillColor=#dae8fc;align=center;verticalAlign=middle;whiteSpace=wrap;rounded=0;fontFamily=Ubuntu;fontSource=https%3A%2F%2Ffonts.googleapis.com%2Fcss%3Ffamily%3DUbuntu;fontSize=14;" vertex="1" parent="1">
          <mxGeometry x="-70" y="330" width="60" height="30" as="geometry" />
        </mxCell>
        <mxCell id="5FXO2D51VpSBJTWo2e1x-41" value="..." style="rounded=0;whiteSpace=wrap;html=1;fontFamily=Ubuntu;fontSource=https%3A%2F%2Ffonts.googleapis.com%2Fcss%3Ffamily%3DUbuntu;fontSize=14;" vertex="1" parent="1">
          <mxGeometry x="-70" y="420" width="170" height="30" as="geometry" />
        </mxCell>
        <mxCell id="5FXO2D51VpSBJTWo2e1x-42" value="0" style="rounded=0;whiteSpace=wrap;html=1;fontFamily=Ubuntu;fontSource=https%3A%2F%2Ffonts.googleapis.com%2Fcss%3Ffamily%3DUbuntu;fontSize=14;" vertex="1" parent="1">
          <mxGeometry x="-70" y="390" width="50" height="30" as="geometry" />
        </mxCell>
        <mxCell id="5FXO2D51VpSBJTWo2e1x-43" value="1" style="rounded=0;whiteSpace=wrap;html=1;fontFamily=Ubuntu;fontSource=https%3A%2F%2Ffonts.googleapis.com%2Fcss%3Ffamily%3DUbuntu;fontSize=14;" vertex="1" parent="1">
          <mxGeometry x="-20" y="390" width="50" height="30" as="geometry" />
        </mxCell>
        <mxCell id="5FXO2D51VpSBJTWo2e1x-44" value="itemList" style="text;html=1;strokeColor=none;fillColor=none;align=center;verticalAlign=middle;whiteSpace=wrap;rounded=0;fontFamily=Ubuntu;fontSource=https%3A%2F%2Ffonts.googleapis.com%2Fcss%3Ffamily%3DUbuntu;fontSize=14;" vertex="1" parent="1">
          <mxGeometry x="-70" y="456" width="60" height="30" as="geometry" />
        </mxCell>
        <mxCell id="5FXO2D51VpSBJTWo2e1x-45" value="barCode = 1234" style="rounded=0;whiteSpace=wrap;html=1;" vertex="1" parent="1">
          <mxGeometry x="200" y="336" width="120" height="30" as="geometry" />
        </mxCell>
        <mxCell id="5FXO2D51VpSBJTWo2e1x-46" value="description = Atlas Blue Marker" style="rounded=0;whiteSpace=wrap;html=1;" vertex="1" parent="1">
          <mxGeometry x="200" y="366" width="120" height="30" as="geometry" />
        </mxCell>
        <mxCell id="5FXO2D51VpSBJTWo2e1x-47" value="stock = 5" style="rounded=0;whiteSpace=wrap;html=1;" vertex="1" parent="1">
          <mxGeometry x="200" y="396" width="120" height="30" as="geometry" />
        </mxCell>
        <mxCell id="5FXO2D51VpSBJTWo2e1x-48" value="buyingPrice = 90" style="rounded=0;whiteSpace=wrap;html=1;" vertex="1" parent="1">
          <mxGeometry x="200" y="426" width="120" height="30" as="geometry" />
        </mxCell>
        <mxCell id="5FXO2D51VpSBJTWo2e1x-49" value="sellingPrice = 100" style="rounded=0;whiteSpace=wrap;html=1;" vertex="1" parent="1">
          <mxGeometry x="200" y="456" width="120" height="30" as="geometry" />
        </mxCell>
        <mxCell id="5FXO2D51VpSBJTWo2e1x-65" style="rounded=0;orthogonalLoop=1;jettySize=auto;html=1;dashed=1;" edge="1" parent="1" source="5FXO2D51VpSBJTWo2e1x-50" target="5FXO2D51VpSBJTWo2e1x-61">
          <mxGeometry relative="1" as="geometry" />
        </mxCell>
        <mxCell id="5FXO2D51VpSBJTWo2e1x-50" value="0xAF14" style="text;html=1;strokeColor=#6c8ebf;fillColor=#dae8fc;align=center;verticalAlign=middle;whiteSpace=wrap;rounded=0;fontFamily=Ubuntu;fontSource=https%3A%2F%2Ffonts.googleapis.com%2Fcss%3Ffamily%3DUbuntu;fontSize=14;" vertex="1" parent="1">
          <mxGeometry x="200" y="306" width="60" height="30" as="geometry" />
        </mxCell>
        <mxCell id="5FXO2D51VpSBJTWo2e1x-51" value="getProfit()" style="ellipse;whiteSpace=wrap;html=1;" vertex="1" parent="1">
          <mxGeometry x="200" y="486" width="120" height="50" as="geometry" />
        </mxCell>
        <mxCell id="5FXO2D51VpSBJTWo2e1x-52" value="barCode = 45678" style="rounded=0;whiteSpace=wrap;html=1;" vertex="1" parent="1">
          <mxGeometry x="380" y="340" width="120" height="30" as="geometry" />
        </mxCell>
        <mxCell id="5FXO2D51VpSBJTWo2e1x-53" value="description = Atlas Blue Marker" style="rounded=0;whiteSpace=wrap;html=1;" vertex="1" parent="1">
          <mxGeometry x="380" y="370" width="120" height="30" as="geometry" />
        </mxCell>
        <mxCell id="5FXO2D51VpSBJTWo2e1x-54" value="stock = 20" style="rounded=0;whiteSpace=wrap;html=1;" vertex="1" parent="1">
          <mxGeometry x="380" y="400" width="120" height="30" as="geometry" />
        </mxCell>
        <mxCell id="5FXO2D51VpSBJTWo2e1x-55" value="buyingPrice = 190" style="rounded=0;whiteSpace=wrap;html=1;" vertex="1" parent="1">
          <mxGeometry x="380" y="430" width="120" height="30" as="geometry" />
        </mxCell>
        <mxCell id="5FXO2D51VpSBJTWo2e1x-56" value="sellingPrice = 200" style="rounded=0;whiteSpace=wrap;html=1;" vertex="1" parent="1">
          <mxGeometry x="380" y="460" width="120" height="30" as="geometry" />
        </mxCell>
        <mxCell id="5FXO2D51VpSBJTWo2e1x-66" style="rounded=0;orthogonalLoop=1;jettySize=auto;html=1;dashed=1;" edge="1" parent="1" source="5FXO2D51VpSBJTWo2e1x-57" target="5FXO2D51VpSBJTWo2e1x-61">
          <mxGeometry relative="1" as="geometry" />
        </mxCell>
        <mxCell id="5FXO2D51VpSBJTWo2e1x-57" value="0xAF14" style="text;html=1;strokeColor=#6c8ebf;fillColor=#dae8fc;align=center;verticalAlign=middle;whiteSpace=wrap;rounded=0;fontFamily=Ubuntu;fontSource=https%3A%2F%2Ffonts.googleapis.com%2Fcss%3Ffamily%3DUbuntu;fontSize=14;" vertex="1" parent="1">
          <mxGeometry x="380" y="310" width="60" height="30" as="geometry" />
        </mxCell>
        <mxCell id="5FXO2D51VpSBJTWo2e1x-58" value="getProfit()" style="ellipse;whiteSpace=wrap;html=1;" vertex="1" parent="1">
          <mxGeometry x="380" y="490" width="120" height="50" as="geometry" />
        </mxCell>
        <mxCell id="5FXO2D51VpSBJTWo2e1x-59" style="edgeStyle=orthogonalEdgeStyle;rounded=0;orthogonalLoop=1;jettySize=auto;html=1;entryX=0;entryY=0.5;entryDx=0;entryDy=0;" edge="1" parent="1" source="5FXO2D51VpSBJTWo2e1x-38" target="5FXO2D51VpSBJTWo2e1x-50">
          <mxGeometry relative="1" as="geometry">
            <Array as="points">
              <mxPoint x="-45" y="340" />
              <mxPoint x="170" y="340" />
              <mxPoint x="170" y="321" />
            </Array>
          </mxGeometry>
        </mxCell>
        <mxCell id="5FXO2D51VpSBJTWo2e1x-61" value="Item Class Object" style="rounded=0;whiteSpace=wrap;html=1;" vertex="1" parent="1">
          <mxGeometry x="-20" y="-80" width="120" height="110" as="geometry" />
        </mxCell>
        <mxCell id="5FXO2D51VpSBJTWo2e1x-62" value="CartItem Class Object" style="rounded=0;whiteSpace=wrap;html=1;" vertex="1" parent="1">
          <mxGeometry x="280" y="-120" width="120" height="110" as="geometry" />
        </mxCell>
      </root>
    </mxGraphModel>
  </diagram>
</mxfile>
